<?xml version="1.0" encoding="UTF-8"?>
<!--Generator: Apple Native CoreSVG 149-->
<!DOCTYPE svg
PUBLIC "-//W3C//DTD SVG 1.1//EN"
       "http://www.w3.org/Graphics/SVG/1.1/DTD/svg11.dtd">
<svg version="1.1" xmlns="http://www.w3.org/2000/svg" xmlns:xlink="http://www.w3.org/1999/xlink" width="3300" height="2200">
 <!--glyph: "", point size: 100.0, font version: "17.0d9e1", template writer version: "59"-->
 <g id="Notes">
  <rect height="2200" id="artboard" style="fill:white;opacity:1" width="3300" x="0" y="0"/>
  <line style="fill:none;stroke:black;opacity:1;stroke-width:0.5;" x1="263" x2="3036" y1="292" y2="292"/>
  <text style="stroke:none;fill:black;font-family:sans-serif;font-size:13;font-weight:bold;" transform="matrix(1 0 0 1 263 322)">Weight/Scale Variations</text>
  <text style="stroke:none;fill:black;font-family:sans-serif;font-size:13;text-anchor:middle;" transform="matrix(1 0 0 1 559.711 322)">Ultralight</text>
  <text style="stroke:none;fill:black;font-family:sans-serif;font-size:13;text-anchor:middle;" transform="matrix(1 0 0 1 856.422 322)">Thin</text>
  <text style="stroke:none;fill:black;font-family:sans-serif;font-size:13;text-anchor:middle;" transform="matrix(1 0 0 1 1153.13 322)">Light</text>
  <text style="stroke:none;fill:black;font-family:sans-serif;font-size:13;text-anchor:middle;" transform="matrix(1 0 0 1 1449.84 322)">Regular</text>
  <text style="stroke:none;fill:black;font-family:sans-serif;font-size:13;text-anchor:middle;" transform="matrix(1 0 0 1 1746.56 322)">Medium</text>
  <text style="stroke:none;fill:black;font-family:sans-serif;font-size:13;text-anchor:middle;" transform="matrix(1 0 0 1 2043.27 322)">Semibold</text>
  <text style="stroke:none;fill:black;font-family:sans-serif;font-size:13;text-anchor:middle;" transform="matrix(1 0 0 1 2339.98 322)">Bold</text>
  <text style="stroke:none;fill:black;font-family:sans-serif;font-size:13;text-anchor:middle;" transform="matrix(1 0 0 1 2636.69 322)">Heavy</text>
  <text style="stroke:none;fill:black;font-family:sans-serif;font-size:13;text-anchor:middle;" transform="matrix(1 0 0 1 2933.4 322)">Black</text>
  <line style="fill:none;stroke:black;opacity:1;stroke-width:0.5;" x1="263" x2="3036" y1="1903" y2="1903"/>
  <g transform="matrix(1 0 0 1 263 1933)">
   <path d="M9.24805 0.830078Q10.8691 0.830078 12.2949 0.214844Q13.7207-0.400391 14.8096-1.49414Q15.8984-2.58789 16.5186-4.01367Q17.1387-5.43945 17.1387-7.05078Q17.1387-8.66211 16.5186-10.0879Q15.8984-11.5137 14.8047-12.6074Q13.7109-13.7012 12.2852-14.3164Q10.8594-14.9316 9.23828-14.9316Q7.62695-14.9316 6.20117-14.3164Q4.77539-13.7012 3.69141-12.6074Q2.60742-11.5137 1.9873-10.0879Q1.36719-8.66211 1.36719-7.05078Q1.36719-5.43945 1.9873-4.01367Q2.60742-2.58789 3.69629-1.49414Q4.78516-0.400391 6.21094 0.214844Q7.63672 0.830078 9.24805 0.830078ZM9.24805-0.654297Q7.91992-0.654297 6.7627-1.14746Q5.60547-1.64062 4.73145-2.51953Q3.85742-3.39844 3.36426-4.56055Q2.87109-5.72266 2.87109-7.05078Q2.87109-8.37891 3.35938-9.54102Q3.84766-10.7031 4.72168-11.582Q5.5957-12.4609 6.75293-12.9541Q7.91016-13.4473 9.23828-13.4473Q10.5762-13.4473 11.7334-12.9541Q12.8906-12.4609 13.7695-11.582Q14.6484-10.7031 15.1465-9.54102Q15.6445-8.37891 15.6445-7.05078Q15.6445-5.72266 15.1514-4.56055Q14.6582-3.39844 13.7842-2.51953Q12.9102-1.64062 11.748-1.14746Q10.5859-0.654297 9.24805-0.654297ZM5.83984-7.04102Q5.83984-6.71875 6.04492-6.51855Q6.25-6.31836 6.5918-6.31836L8.50586-6.31836L8.50586-4.39453Q8.50586-4.0625 8.70605-3.85742Q8.90625-3.65234 9.22852-3.65234Q9.56055-3.65234 9.76562-3.85742Q9.9707-4.0625 9.9707-4.39453L9.9707-6.31836L11.8945-6.31836Q12.2266-6.31836 12.4316-6.51855Q12.6367-6.71875 12.6367-7.04102Q12.6367-7.37305 12.4316-7.57812Q12.2266-7.7832 11.8945-7.7832L9.9707-7.7832L9.9707-9.69727Q9.9707-10.0391 9.76562-10.2441Q9.56055-10.4492 9.22852-10.4492Q8.90625-10.4492 8.70605-10.2441Q8.50586-10.0391 8.50586-9.69727L8.50586-7.7832L6.5918-7.7832Q6.25-7.7832 6.04492-7.57812Q5.83984-7.37305 5.83984-7.04102Z"/>
  </g>
  <g transform="matrix(1 0 0 1 281.867 1933)">
   <path d="M11.709 2.91016Q13.75 2.91016 15.5518 2.12891Q17.3535 1.34766 18.7305-0.0292969Q20.1074-1.40625 20.8887-3.20801Q21.6699-5.00977 21.6699-7.05078Q21.6699-9.0918 20.8887-10.8936Q20.1074-12.6953 18.7305-14.0723Q17.3535-15.4492 15.5469-16.2305Q13.7402-17.0117 11.6992-17.0117Q9.6582-17.0117 7.85645-16.2305Q6.05469-15.4492 4.68262-14.0723Q3.31055-12.6953 2.5293-10.8936Q1.74805-9.0918 1.74805-7.05078Q1.74805-5.00977 2.5293-3.20801Q3.31055-1.40625 4.6875-0.0292969Q6.06445 1.34766 7.86621 2.12891Q9.66797 2.91016 11.709 2.91016ZM11.709 1.25Q9.98047 1.25 8.47656 0.605469Q6.97266-0.0390625 5.83496-1.17676Q4.69727-2.31445 4.05762-3.81836Q3.41797-5.32227 3.41797-7.05078Q3.41797-8.7793 4.05762-10.2832Q4.69727-11.7871 5.83008-12.9297Q6.96289-14.0723 8.4668-14.7119Q9.9707-15.3516 11.6992-15.3516Q13.4277-15.3516 14.9316-14.7119Q16.4355-14.0723 17.5781-12.9297Q18.7207-11.7871 19.3652-10.2832Q20.0098-8.7793 20.0098-7.05078Q20.0098-5.32227 19.3701-3.81836Q18.7305-2.31445 17.5928-1.17676Q16.4551-0.0390625 14.9463 0.605469Q13.4375 1.25 11.709 1.25ZM7.39258-7.04102Q7.39258-6.68945 7.62695-6.46484Q7.86133-6.24023 8.23242-6.24023L10.8789-6.24023L10.8789-3.57422Q10.8789-3.21289 11.1035-2.9834Q11.3281-2.75391 11.6797-2.75391Q12.0508-2.75391 12.2852-2.9834Q12.5195-3.21289 12.5195-3.57422L12.5195-6.24023L15.1758-6.24023Q15.5371-6.24023 15.7715-6.46484Q16.0059-6.68945 16.0059-7.04102Q16.0059-7.41211 15.7715-7.6416Q15.5371-7.87109 15.1758-7.87109L12.5195-7.87109L12.5195-10.5176Q12.5195-10.8984 12.2852-11.1279Q12.0508-11.3574 11.6797-11.3574Q11.3281-11.3574 11.1035-11.1279Q10.8789-10.8984 10.8789-10.5176L10.8789-7.87109L8.23242-7.87109Q7.85156-7.87109 7.62207-7.6416Q7.39258-7.41211 7.39258-7.04102Z"/>
  </g>
  <g transform="matrix(1 0 0 1 305.646 1933)">
   <path d="M14.9707 5.66406Q17.0605 5.66406 18.96 5.01465Q20.8594 4.36523 22.4512 3.19336Q24.043 2.02148 25.2197 0.429688Q26.3965-1.16211 27.0459-3.06641Q27.6953-4.9707 27.6953-7.05078Q27.6953-9.14062 27.0459-11.04Q26.3965-12.9395 25.2197-14.5312Q24.043-16.123 22.4512-17.2998Q20.8594-18.4766 18.9551-19.126Q17.0508-19.7754 14.9609-19.7754Q12.8711-19.7754 10.9717-19.126Q9.07227-18.4766 7.48535-17.2998Q5.89844-16.123 4.72168-14.5312Q3.54492-12.9395 2.90039-11.04Q2.25586-9.14062 2.25586-7.05078Q2.25586-4.9707 2.90527-3.06641Q3.55469-1.16211 4.72656 0.429688Q5.89844 2.02148 7.49023 3.19336Q9.08203 4.36523 10.9814 5.01465Q12.8809 5.66406 14.9707 5.66406ZM14.9707 3.84766Q13.1641 3.84766 11.5283 3.2959Q9.89258 2.74414 8.53516 1.74805Q7.17773 0.751953 6.17676-0.610352Q5.17578-1.97266 4.62891-3.6084Q4.08203-5.24414 4.08203-7.05078Q4.08203-8.86719 4.62891-10.5029Q5.17578-12.1387 6.17188-13.501Q7.16797-14.8633 8.52539-15.8594Q9.88281-16.8555 11.5186-17.4023Q13.1543-17.9492 14.9609-17.9492Q16.7773-17.9492 18.4131-17.4023Q20.0488-16.8555 21.4111-15.8594Q22.7734-14.8633 23.7695-13.501Q24.7656-12.1387 25.3174-10.5029Q25.8691-8.86719 25.8691-7.05078Q25.8789-5.24414 25.332-3.6084Q24.7852-1.97266 23.7842-0.610352Q22.7832 0.751953 21.4209 1.74805Q20.0586 2.74414 18.4229 3.2959Q16.7871 3.84766 14.9707 3.84766ZM9.45312-7.04102Q9.45312-6.66016 9.71191-6.41113Q9.9707-6.16211 10.3711-6.16211L14.0625-6.16211L14.0625-2.46094Q14.0625-2.06055 14.3115-1.80664Q14.5605-1.55273 14.9414-1.55273Q15.3516-1.55273 15.6055-1.80664Q15.8594-2.06055 15.8594-2.46094L15.8594-6.16211L19.5605-6.16211Q19.9609-6.16211 20.2148-6.41113Q20.4688-6.66016 20.4688-7.04102Q20.4688-7.45117 20.2148-7.70508Q19.9609-7.95898 19.5605-7.95898L15.8594-7.95898L15.8594-11.6504Q15.8594-12.0605 15.6055-12.3145Q15.3516-12.5684 14.9414-12.5684Q14.5605-12.5684 14.3115-12.3096Q14.0625-12.0508 14.0625-11.6504L14.0625-7.95898L10.3711-7.95898Q9.96094-7.95898 9.70703-7.70508Q9.45312-7.45117 9.45312-7.04102Z"/>
  </g>
  <text style="stroke:none;fill:black;font-family:sans-serif;font-size:13;font-weight:bold;" transform="matrix(1 0 0 1 263 1953)">Design Variations</text>
  <text style="stroke:none;fill:black;font-family:sans-serif;font-size:13;" transform="matrix(1 0 0 1 263 1971)">Symbols are supported in up to nine weights and three scales.</text>
  <text style="stroke:none;fill:black;font-family:sans-serif;font-size:13;" transform="matrix(1 0 0 1 263 1989)">For optimal layout with text and other symbols, vertically align</text>
  <text style="stroke:none;fill:black;font-family:sans-serif;font-size:13;" transform="matrix(1 0 0 1 263 2007)">symbols with the adjacent text.</text>
  <line style="fill:none;stroke:#00AEEF;stroke-width:0.5;opacity:1.0;" x1="776" x2="776" y1="1919" y2="1933"/>
  <g transform="matrix(1 0 0 1 776 1933)">
   <path d="M3.31055 0.15625Q3.70117 0.15625 3.91602-0.00976562Q4.13086-0.175781 4.26758-0.585938L5.52734-4.0332L11.2891-4.0332L12.5488-0.585938Q12.6855-0.175781 12.9004-0.00976562Q13.1152 0.15625 13.4961 0.15625Q13.8867 0.15625 14.1162-0.0585938Q14.3457-0.273438 14.3457-0.644531Q14.3457-0.869141 14.2383-1.17188L9.6582-13.3691Q9.48242-13.8184 9.17969-14.043Q8.87695-14.2676 8.4082-14.2676Q7.5-14.2676 7.17773-13.3789L2.59766-1.16211Q2.49023-0.859375 2.49023-0.634766Q2.49023-0.263672 2.70996-0.0537109Q2.92969 0.15625 3.31055 0.15625ZM6.00586-5.51758L8.37891-12.0898L8.42773-12.0898L10.8008-5.51758Z"/>
  </g>
  <line style="fill:none;stroke:#00AEEF;stroke-width:0.5;opacity:1.0;" x1="793.197" x2="793.197" y1="1919" y2="1933"/>
  <text style="stroke:none;fill:black;font-family:sans-serif;font-size:13;font-weight:bold;" transform="matrix(1 0 0 1 776 1953)">Margins</text>
  <text style="stroke:none;fill:black;font-family:sans-serif;font-size:13;" transform="matrix(1 0 0 1 776 1971)">Leading and trailing margins on the left and right side of each symbol</text>
  <text style="stroke:none;fill:black;font-family:sans-serif;font-size:13;" transform="matrix(1 0 0 1 776 1989)">can be adjusted by modifying the x-location of the margin guidelines.</text>
  <text style="stroke:none;fill:black;font-family:sans-serif;font-size:13;" transform="matrix(1 0 0 1 776 2007)">Modifications are automatically applied proportionally to all</text>
  <text style="stroke:none;fill:black;font-family:sans-serif;font-size:13;" transform="matrix(1 0 0 1 776 2025)">scales and weights.</text>
  <g transform="matrix(1 0 0 1 1289 1933)">
   <path d="M2.8418 1.86523L4.54102 3.57422Q5.18555 4.22852 5.90332 4.17969Q6.62109 4.13086 7.31445 3.35938L18.0078-8.42773L17.041-9.4043L6.42578 2.27539Q6.16211 2.57812 5.89355 2.61719Q5.625 2.65625 5.27344 2.30469L4.10156 1.14258Q3.75 0.791016 3.79395 0.522461Q3.83789 0.253906 4.14062-0.0195312L15.6152-10.8203L14.6387-11.7871L3.04688-0.898438Q2.30469-0.214844 2.25098 0.498047Q2.19727 1.21094 2.8418 1.86523ZM9.25781-16.3281Q8.94531-16.0254 8.90625-15.6348Q8.86719-15.2441 9.04297-14.9512Q9.21875-14.6777 9.55566-14.541Q9.89258-14.4043 10.3809-14.5215Q11.4746-14.7754 12.5977-14.7314Q13.7207-14.6875 14.7949-13.9844L14.209-12.5293Q13.9551-11.9043 14.0674-11.4404Q14.1797-10.9766 14.5801-10.5664L16.875-8.25195Q17.2363-7.88086 17.5781-7.82227Q17.9199-7.76367 18.3398-7.8418L19.4043-8.03711L20.0684-7.36328L20.0293-6.80664Q20-6.43555 20.1221-6.12305Q20.2441-5.81055 20.6055-5.44922L21.3672-4.70703Q21.7285-4.3457 22.1533-4.33105Q22.5781-4.31641 22.9297-4.66797L25.8398-7.58789Q26.1914-7.93945 26.1816-8.35449Q26.1719-8.76953 25.8105-9.13086L25.0391-9.89258Q24.6875-10.2539 24.3799-10.3857Q24.0723-10.5176 23.7109-10.4883L23.1348-10.4395L22.4902-11.0742L22.7344-12.1973Q22.832-12.6172 22.6953-12.9834Q22.5586-13.3496 22.1191-13.7891L19.9219-15.9766Q18.6719-17.2168 17.2607-17.8369Q15.8496-18.457 14.4189-18.4814Q12.9883-18.5059 11.665-17.959Q10.3418-17.4121 9.25781-16.3281ZM10.752-15.957Q11.6602-16.6211 12.7002-16.9043Q13.7402-17.1875 14.8047-17.085Q15.8691-16.9824 16.8701-16.5137Q17.8711-16.0449 18.7012-15.2051L21.1328-12.793Q21.3086-12.6172 21.3525-12.4512Q21.3965-12.2852 21.3379-12.0312L21.0156-10.5469L22.5195-9.0625L23.5059-9.12109Q23.6914-9.13086 23.7891-9.09668Q23.8867-9.0625 24.0332-8.91602L24.6094-8.33984L22.168-5.89844L21.5918-6.47461Q21.4453-6.62109 21.4062-6.71875Q21.3672-6.81641 21.377-7.01172L21.4453-7.98828L19.9512-9.47266L18.4277-9.21875Q18.1836-9.16992 18.042-9.2041Q17.9004-9.23828 17.7148-9.41406L15.7129-11.416Q15.5176-11.5918 15.4932-11.7529Q15.4688-11.9141 15.5859-12.1875L16.4648-14.2773Q15.293-15.3711 13.8281-15.791Q12.3633-16.2109 10.8398-15.7617Q10.7227-15.7324 10.6885-15.8057Q10.6543-15.8789 10.752-15.957Z"/>
  </g>
  <text style="stroke:none;fill:black;font-family:sans-serif;font-size:13;font-weight:bold;" transform="matrix(1 0 0 1 1289 1953)">Exporting</text>
  <text style="stroke:none;fill:black;font-family:sans-serif;font-size:13;" transform="matrix(1 0 0 1 1289 1971)">Symbols should be outlined when exporting to ensure the</text>
  <text style="stroke:none;fill:black;font-family:sans-serif;font-size:13;" transform="matrix(1 0 0 1 1289 1989)">design is preserved when submitting to Xcode.</text>
  <text id="template-version" style="stroke:none;fill:black;font-family:sans-serif;font-size:13;text-anchor:end;" transform="matrix(1 0 0 1 3036 1933)">Template v.2.0</text>
  <text style="stroke:none;fill:black;font-family:sans-serif;font-size:13;text-anchor:end;" transform="matrix(1 0 0 1 3036 1951)">Requires Xcode 13 or greater</text>
  <text id="descriptive-name" style="stroke:none;fill:black;font-family:sans-serif;font-size:13;text-anchor:end;" transform="matrix(1 0 0 1 3036 1969)">Generated from marker.fill</text>
  <text style="stroke:none;fill:black;font-family:sans-serif;font-size:13;text-anchor:end;" transform="matrix(1 0 0 1 3036 1987)">Typeset at 100 points</text>
  <text style="stroke:none;fill:black;font-family:sans-serif;font-size:13;" transform="matrix(1 0 0 1 263 726)">Small</text>
  <text style="stroke:none;fill:black;font-family:sans-serif;font-size:13;" transform="matrix(1 0 0 1 263 1156)">Medium</text>
  <text style="stroke:none;fill:black;font-family:sans-serif;font-size:13;" transform="matrix(1 0 0 1 263 1586)">Large</text>
 </g>
 <g id="Guides">
  <g id="H-reference" style="fill:#27AAE1;stroke:none;" transform="matrix(1 0 0 1 339 696)">
   <path d="M0.976562 0L3.66211 0L29.3457-67.1387L30.0293-67.1387L30.0293-70.459L28.125-70.459ZM11.6699-24.4629L46.9727-24.4629L46.2402-26.709L12.4512-26.709ZM55.127 0L57.7637 0L30.6152-70.459L29.4434-70.459L29.4434-67.1387Z"/>
  </g>
  <line id="Baseline-S" style="fill:none;stroke:#27AAE1;opacity:1;stroke-width:0.5;" x1="263" x2="3036" y1="696" y2="696"/>
  <line id="Capline-S" style="fill:none;stroke:#27AAE1;opacity:1;stroke-width:0.5;" x1="263" x2="3036" y1="625.541" y2="625.541"/>
  <g id="H-reference" style="fill:#27AAE1;stroke:none;" transform="matrix(1 0 0 1 339 1126)">
   <path d="M0.976562 0L3.66211 0L29.3457-67.1387L30.0293-67.1387L30.0293-70.459L28.125-70.459ZM11.6699-24.4629L46.9727-24.4629L46.2402-26.709L12.4512-26.709ZM55.127 0L57.7637 0L30.6152-70.459L29.4434-70.459L29.4434-67.1387Z"/>
  </g>
  <line id="Baseline-M" style="fill:none;stroke:#27AAE1;opacity:1;stroke-width:0.5;" x1="263" x2="3036" y1="1126" y2="1126"/>
  <line id="Capline-M" style="fill:none;stroke:#27AAE1;opacity:1;stroke-width:0.5;" x1="263" x2="3036" y1="1055.54" y2="1055.54"/>
  <g id="H-reference" style="fill:#27AAE1;stroke:none;" transform="matrix(1 0 0 1 339 1556)">
   <path d="M0.976562 0L3.66211 0L29.3457-67.1387L30.0293-67.1387L30.0293-70.459L28.125-70.459ZM11.6699-24.4629L46.9727-24.4629L46.2402-26.709L12.4512-26.709ZM55.127 0L57.7637 0L30.6152-70.459L29.4434-70.459L29.4434-67.1387Z"/>
  </g>
  <line id="Baseline-L" style="fill:none;stroke:#27AAE1;opacity:1;stroke-width:0.5;" x1="263" x2="3036" y1="1556" y2="1556"/>
  <line id="Capline-L" style="fill:none;stroke:#27AAE1;opacity:1;stroke-width:0.5;" x1="263" x2="3036" y1="1485.54" y2="1485.54"/>
  <line id="left-margin" style="fill:none;stroke:#00AEEF;stroke-width:0.5;opacity:1.0;" x1="1391.91" x2="1391.91" y1="1030.78" y2="1150.12"/>
  <line id="right-margin" style="fill:none;stroke:#00AEEF;stroke-width:0.5;opacity:1.0;" x1="1507.77" x2="1507.77" y1="1030.78" y2="1150.12"/>
 </g>
 <g id="Symbols">
  <g id="Black-L" transform="matrix(1 0 0 1 2854.29 1556)">
   <path d="M118.558-57.8701C118.558-78.3357 101.972-94.9276 81.5003-94.9276C61.0282-94.9276 44.4428-78.3357 44.4428-57.8701C44.4428-30.077 81.5003 10.9448 81.5003 10.9448C81.5003 10.9448 118.558-30.077 118.558-57.8701ZM75.4723-64.1979L81.5002-76.3989L87.5119-64.1979L100.984-62.2429L91.2341-52.7512L93.5398-39.3414L81.5002-45.6691L69.4607-39.3414L71.7501-52.7512L62.0162-62.2429L75.4723-64.1979ZM44.4428 27.802L118.558 27.802L118.558 16.2449L44.4428 16.2449L44.4428 27.802Z"/>
  </g>
  <g id="Heavy-L" transform="matrix(1 0 0 1 2558.8 1556)">
   <path d="M116.754-57.5878C116.754-78.0534 100.168-94.6453 79.6962-94.6453C59.2245-94.6453 42.6387-78.0534 42.6387-57.5878C42.6387-29.7947 79.6962 11.2271 79.6962 11.2271C79.6962 11.2271 116.754-29.7947 116.754-57.5878ZM73.6685-63.9156L79.6961-76.1166L85.7084-63.9156L99.18-61.9606L89.4304-52.4689L91.7355-39.0591L79.6961-45.3868L67.6565-39.0591L69.9465-52.4689L60.2121-61.9606L73.6685-63.9156ZM42.6387 27.34L116.754 27.34L116.754 16.5272L42.6387 16.5272L42.6387 27.34Z"/>
  </g>
  <g id="Bold-L" transform="matrix(1 0 0 1 2263.82 1556)">
   <path d="M114.44-57.272C114.44-77.7376 97.8531-94.3295 77.3821-94.3295C56.911-94.3295 40.3246-77.7376 40.3246-57.272C40.3246-29.4789 77.3821 11.5429 77.3821 11.5429C77.3821 11.5429 114.44-29.4789 114.44-57.272ZM71.3546-63.5998L77.3818-75.8008L83.3951-63.5998L96.8655-61.6448L87.1167-52.1531L89.4211-38.7433L77.3818-45.071L65.3422-38.7433L67.633-52.1531L57.8978-61.6448L71.3546-63.5998ZM40.3246 26.7074L114.44 26.7074L114.44 16.843L40.3246 16.843L40.3246 26.7074Z"/>
  </g>
  <g id="Semibold-L" transform="matrix(1 0 0 1 1968.31 1556)">
   <path d="M112.844-57.0543C112.844-77.5199 96.2573-94.1118 75.7867-94.1118C55.3161-94.1118 38.7292-77.5199 38.7292-57.0543C38.7292-29.2612 75.7867 11.7606 75.7867 11.7606C75.7867 11.7606 112.844-29.2612 112.844-57.0543ZM69.7595-63.3821L75.7863-75.5831L81.8003-63.3821L95.2699-61.4271L85.5217-51.9354L87.8255-38.5256L75.7863-44.8533L63.7467-38.5256L66.0381-51.9354L56.3023-61.4271L69.7595-63.3821ZM38.7292 26.2713L112.844 26.2713L112.844 17.0607L38.7292 17.0607L38.7292 26.2713Z"/>
  </g>
  <g id="Medium-L" transform="matrix(1 0 0 1 1672.5 1556)">
   <path d="M111.635-56.8893C111.635-77.3549 95.0473-93.9468 74.577-93.9468C54.1068-93.9468 37.5195-77.3549 37.5195-56.8893C37.5195-29.0961 74.577 11.9257 74.577 11.9257C74.577 11.9257 111.635-29.0961 111.635-56.8893ZM68.55-63.217L74.5766-75.418L80.5911-63.217L94.0601-61.262L84.3123-51.7704L86.6156-38.3605L74.5766-44.6883L62.537-38.3605L64.8288-51.7704L55.0925-61.262L68.55-63.217ZM37.5195 25.9406L111.635 25.9406L111.635 17.2257L37.5195 17.2257L37.5195 25.9406Z"/>
  </g>
  <g id="Regular-L" transform="matrix(1 0 0 1 1376.97 1556)">
   <path d="M110.057-56.6739C110.057-77.1396 93.469-93.7314 72.9992-93.7314C52.5294-93.7314 35.9417-77.1396 35.9417-56.6739C35.9417-28.8808 72.9992 12.141 72.9992 12.141C72.9992 12.141 110.057-28.8808 110.057-56.6739ZM66.9724-63.0017L72.9986-75.2027L79.0138-63.0017L92.482-61.0467L82.7348-51.5551L85.0376-38.1452L72.9986-44.473L60.959-38.1452L63.2514-51.5551L53.5146-61.0467L66.9724-63.0017ZM35.9417 25.5093L110.057 25.5093L110.057 17.4411L35.9417 17.4411L35.9417 25.5093Z"/>
  </g>
  <g id="Light-L" transform="matrix(1 0 0 1 1082.85 1556)">
   <path d="M107.946-56.6739C107.946-77.1396 91.3562-93.7314 70.8881-93.7314C50.42-93.7314 33.8306-77.1396 33.8306-56.6739C33.8306-28.8808 70.8881 12.141 70.8881 12.141C70.8881 12.141 107.946-28.8808 107.946-56.6739ZM64.8621-63.0017L70.8871-75.2027L76.9048-63.0017L90.3701-61.0467L80.625-51.5551L82.9256-38.1452L70.8871-44.473L58.8475-38.1452L61.142-51.5551L51.4031-61.0467L64.8621-63.0017ZM33.8306 24.6838L107.946 24.6838L107.946 17.4411L33.8306 17.4411L33.8306 24.6838Z"/>
  </g>
  <g id="Thin-L" transform="matrix(1 0 0 1 789.556 1556)">
   <path d="M105.153-56.6739C105.153-77.1396 88.5619-93.7314 68.096-93.7314C47.6301-93.7314 31.0385-77.1396 31.0385-56.6739C31.0385-28.8808 68.096 12.141 68.096 12.141C68.096 12.141 105.153-28.8808 105.153-56.6739ZM62.0711-63.0017L68.0944-75.2027L74.1155-63.0017L87.5768-61.0467L77.8345-51.5551L80.1324-38.1452L68.0944-44.473L56.0548-38.1452L58.3521-51.5551L48.6104-61.0467L62.0711-63.0017ZM31.0385 23.5921L105.153 23.5921L105.153 17.4411L31.0385 17.4411L31.0385 23.5921Z"/>
  </g>
  <g id="Ultralight-L" transform="matrix(1 0 0 1 494.596 1556)">
   <path d="M103.723-56.6739C103.723-77.1396 87.1306-93.7314 66.6659-93.7314C46.2011-93.7314 29.6084-77.1396 29.6084-56.6739C29.6084-28.8808 66.6659 12.141 66.6659 12.141C66.6659 12.141 103.723-28.8808 103.723-56.6739ZM60.6416-63.0017L66.664-75.2027L72.6868-63.0017L86.1461-61.0467L76.4053-51.5551L78.7017-38.1452L66.664-44.473L54.6244-38.1452L56.9231-51.5551L47.18-61.0467L60.6416-63.0017ZM29.6084 23.0329L103.723 23.0329L103.723 17.4411L29.6084 17.4411L29.6084 23.0329Z"/>
  </g>
  <g id="Black-M" transform="matrix(1 0 0 1 2871.41 1126)">
   <path d="M93.1161-53.0129C93.1161-68.8684 80.2668-81.7229 64.4061-81.7229C48.5454-81.7229 35.6961-68.8684 35.6961-53.0129C35.6961-31.4804 64.4061 0.300979 64.4061 0.300979C64.4061 0.300979 93.1161-31.4804 93.1161-53.0129ZM59.7359-57.9152L64.4061-67.3679L69.0635-57.9152L79.5012-56.4006L71.9472-49.047L73.7337-38.6579L64.4061-43.5602L55.0785-38.6579L56.8521-49.047L49.311-56.4006L59.7359-57.9152ZM35.6961 13.8888L93.1161 13.8888L93.1161 4.40715L35.6961 4.40715L35.6961 13.8888Z"/>
  </g>
  <g id="Heavy-M" transform="matrix(1 0 0 1 2575.65 1126)">
   <path d="M91.5473-52.7369C91.5473-68.5925 78.6978-81.4469 62.8373-81.4469C46.9768-81.4469 34.1273-68.5925 34.1273-52.7369C34.1273-31.2044 62.8373 0.576941 62.8373 0.576941C62.8373 0.576941 91.5473-31.2044 91.5473-52.7369ZM58.1672-57.6393L62.8372-67.0919L67.4949-57.6393L77.9323-56.1247L70.3786-48.7711L72.1647-38.3819L62.8372-43.2843L53.5097-38.3819L55.2836-48.7711L47.7421-56.1247L58.1672-57.6393ZM34.1273 13.5133L91.5473 13.5133L91.5473 4.68311L34.1273 4.68311L34.1273 13.5133Z"/>
  </g>
  <g id="Bold-M" transform="matrix(1 0 0 1 2280.02 1126)">
   <path d="M89.7923-52.4282C89.7923-68.2838 76.9426-81.1382 61.0823-81.1382C45.2221-81.1382 32.3723-68.2838 32.3723-52.4282C32.3723-30.8957 61.0823 0.885645 61.0823 0.885645C61.0823 0.885645 89.7923-30.8957 89.7923-52.4282ZM56.4124-57.3306L61.0822-66.7832L65.7403-57.3306L76.1772-55.816L68.6238-48.4624L70.4097-38.0732L61.0822-42.9756L51.7547-38.0732L53.5289-48.4624L45.9871-55.816L56.4124-57.3306ZM32.3723 13.0932L89.7923 13.0932L89.7923 4.99181L32.3723 4.99181L32.3723 13.0932Z"/>
  </g>
  <g id="Semibold-M" transform="matrix(1 0 0 1 1984.04 1126)">
   <path d="M88.5825-52.2154C88.5825-68.0709 75.7325-80.9254 59.8725-80.9254C44.0124-80.9254 31.1625-68.0709 31.1625-52.2154C31.1625-30.6829 59.8725 1.09846 59.8725 1.09846C59.8725 1.09846 88.5825-30.6829 88.5825-52.2154ZM55.2026-57.1178L59.8723-66.5704L64.5307-57.1178L74.9673-55.6031L67.4141-48.2496L69.1997-37.8604L59.8723-42.7628L50.5448-37.8604L52.3192-48.2496L44.7772-55.6031L55.2026-57.1178ZM31.1625 12.8036L88.5825 12.8036L88.5825 5.20463L31.1625 5.20463L31.1625 12.8036Z"/>
  </g>
  <g id="Medium-M" transform="matrix(1 0 0 1 1687.89 1126)">
   <path d="M87.6651-52.054C87.6651-67.9096 74.8151-80.764 58.9551-80.764C43.0952-80.764 30.2451-67.9096 30.2451-52.054C30.2451-30.5215 58.9551 1.25983 58.9551 1.25983C58.9551 1.25983 87.6651-30.5215 87.6651-52.054ZM54.2853-56.9564L58.9549-66.409L63.6135-56.9564L74.0498-55.4418L66.4969-48.0882L68.2823-37.699L58.9549-42.6014L49.6274-37.699L51.402-48.0882L43.8599-55.4418L54.2853-56.9564ZM30.2451 12.584L87.6651 12.584L87.6651 5.366L30.2451 5.366L30.2451 12.584Z"/>
  </g>
  <g id="Regular-M" transform="matrix(1 0 0 1 1391.91 1126)">
   <path d="M86.4686-51.8435C86.4686-67.6991 73.6183-80.5535 57.7586-80.5535C41.8988-80.5535 29.0486-67.6991 29.0486-51.8435C29.0486-30.311 57.7586 1.47031 57.7586 1.47031C57.7586 1.47031 86.4686-30.311 86.4686-51.8435ZM53.0889-56.7459L57.7583-66.1985L62.4171-56.7459L72.8532-55.2313L65.3004-47.8777L67.0857-37.4885L57.7583-42.3909L48.4308-37.4885L50.2056-47.8777L42.6633-55.2313L53.0889-56.7459ZM29.0486 12.2976L86.4686 12.2976L86.4686 5.57648L29.0486 5.57648L29.0486 12.2976Z"/>
  </g>
  <g id="Light-M" transform="matrix(1 0 0 1 1097.52 1126)">
   <path d="M84.5759-51.8435C84.5759-67.6991 71.7241-80.5535 55.8659-80.5535C40.0076-80.5535 27.1559-67.6991 27.1559-51.8435C27.1559-30.311 55.8659 1.47031 55.8659 1.47031C55.8659 1.47031 84.5759-30.311 84.5759-51.8435ZM51.1969-56.7459L55.8652-66.1985L60.5263-56.7459L70.9597-55.2313L63.4088-47.8777L65.1922-37.4885L55.8652-42.3909L46.5377-37.4885L48.3144-47.8777L40.7702-55.2313L51.1969-56.7459ZM27.1559 11.5576L84.5759 11.5576L84.5759 5.57648L27.1559 5.57648L27.1559 11.5576Z"/>
  </g>
  <g id="Thin-M" transform="matrix(1 0 0 1 803.876 1126)">
   <path d="M82.0726-51.8435C82.0726-67.6991 69.2188-80.5535 53.3626-80.5535C37.5063-80.5535 24.6526-67.6991 24.6526-51.8435C24.6526-30.311 53.3626 1.47031 53.3626 1.47031C53.3626 1.47031 82.0726-30.311 82.0726-51.8435ZM48.6946-56.7459L53.3615-66.1985L58.0255-56.7459L68.4554-55.2313L60.9071-47.8777L62.6879-37.4885L53.3615-42.3909L44.0339-37.4885L45.8131-47.8777L38.2664-55.2313L48.6946-56.7459ZM24.6526 10.5788L82.0726 10.5788L82.0726 5.57648L24.6526 5.57648L24.6526 10.5788Z"/>
  </g>
  <g id="Ultralight-M" transform="matrix(1 0 0 1 508.735 1126)">
   <path d="M80.7904-51.8435C80.7904-67.6991 67.9356-80.5535 52.0804-80.5535C36.2252-80.5535 23.3704-67.6991 23.3704-51.8435C23.3704-30.311 52.0804 1.47031 52.0804 1.47031C52.0804 1.47031 80.7904-30.311 80.7904-51.8435ZM47.413-56.7459L52.079-66.1985L56.7446-56.7459L67.1728-55.2313L59.6257-47.8777L61.4052-37.4885L52.079-42.3909L42.7515-37.4885L44.5319-47.8777L36.984-55.2313L47.413-56.7459ZM23.3704 10.0775L80.7904 10.0775L80.7904 5.57648L23.3704 5.57648L23.3704 10.0775Z"/>
  </g>
  <g id="Black-S" transform="matrix(1 0 0 1 2884.66 696)">
   <path d="M73.34-49.25C73.34-61.676 63.27-71.75 50.84-71.75C38.41-71.75 28.34-61.676 28.34-49.25C28.34-32.375 50.84-7.468 50.84-7.468C50.84-7.468 73.34-32.375 73.34-49.25ZM47.18-53.092L50.84-60.5L54.49-53.092L62.67-51.905L56.75-46.142L58.15-38L50.84-41.842L43.53-38L44.92-46.142L39.01-51.905L47.18-53.092ZM28.34 3.335L73.34 3.335L73.34-4.25L28.34-4.25L28.34 3.335Z"/>
  </g>
  <g id="Heavy-S" transform="matrix(1 0 0 1 2588.47 696)">
   <path d="M72.2401-49.014C72.2401-61.44 62.1701-71.514 49.7401-71.514C37.3101-71.514 27.2401-61.44 27.2401-49.014C27.2401-32.139 49.7401-7.23198 49.7401-7.23198C49.7401-7.23198 72.2401-32.139 72.2401-49.014ZM46.0801-52.856L49.7401-60.264L53.3901-52.856L61.5701-51.669L55.6501-45.906L57.0501-37.764L49.7401-41.606L42.4301-37.764L43.8201-45.906L37.9101-51.669L46.0801-52.856ZM27.2401 3.10842L72.2401 3.10842L72.2401-4.01398L27.2401-4.01398L27.2401 3.10842Z"/>
  </g>
  <g id="Bold-S" transform="matrix(1 0 0 1 2292.35 696)">
   <path d="M71.01-48.75C71.01-61.176 60.94-71.25 48.51-71.25C36.08-71.25 26.01-61.176 26.01-48.75C26.01-31.875 48.51-6.968 48.51-6.968C48.51-6.968 71.01-31.875 71.01-48.75ZM44.85-52.592L48.51-60L52.16-52.592L60.34-51.405L54.42-45.642L55.82-37.5L48.51-41.342L41.2-37.5L42.59-45.642L36.68-51.405L44.85-52.592ZM26.01 2.855L71.01 2.855L71.01-3.75L26.01-3.75L26.01 2.855Z"/>
  </g>
  <g id="Semibold-S" transform="matrix(1 0 0 1 1996.04 696)">
   <path d="M70.1619-48.568C70.1619-60.994 60.0919-71.068 47.6619-71.068C35.2319-71.068 25.1619-60.994 25.1619-48.568C25.1619-31.693 47.6619-6.786 47.6619-6.786C47.6619-6.786 70.1619-31.693 70.1619-48.568ZM44.0019-52.41L47.6619-59.818L51.3119-52.41L59.4919-51.223L53.5719-45.46L54.9719-37.318L47.6619-41.16L40.3519-37.318L41.7419-45.46L35.8319-51.223L44.0019-52.41ZM25.1619 2.68028L70.1619 2.68028L70.1619-3.568L25.1619-3.568L25.1619 2.68028Z"/>
  </g>
  <g id="Medium-S" transform="matrix(1 0 0 1 1699.64 696)">
   <path d="M69.5188-48.43C69.5188-60.856 59.4488-70.93 47.0188-70.93C34.5888-70.93 24.5188-60.856 24.5188-48.43C24.5188-31.555 47.0188-6.648 47.0188-6.648C47.0188-6.648 69.5188-31.555 69.5188-48.43ZM43.3588-52.272L47.0188-59.68L50.6688-52.272L58.8488-51.085L52.9288-45.322L54.3288-37.18L47.0188-41.022L39.7088-37.18L41.0988-45.322L35.1888-51.085L43.3588-52.272ZM24.5188 2.5478L69.5188 2.5478L69.5188-3.43L24.5188-3.43L24.5188 2.5478Z"/>
  </g>
  <g id="Regular-S" transform="matrix(1 0 0 1 1403.32 696)">
   <path d="M68.68-48.25C68.68-60.676 58.61-70.75 46.18-70.75C33.75-70.75 23.68-60.676 23.68-48.25C23.68-31.375 46.18-6.468 46.18-6.468C46.18-6.468 68.68-31.375 68.68-48.25ZM42.52-52.092L46.18-59.5L49.83-52.092L58.01-50.905L52.09-45.142L53.49-37L46.18-40.842L38.87-37L40.26-45.142L34.35-50.905L42.52-52.092ZM23.68 2.375L68.68 2.375L68.68-3.25L23.68-3.25L23.68 2.375Z"/>
  </g>
  <g id="Light-S" transform="matrix(1 0 0 1 1108.66 696)">
   <path d="M67.0057-48.25C67.0057-60.676 56.9343-70.75 44.5057-70.75C32.077-70.75 22.0057-60.676 22.0057-48.25C22.0057-31.375 44.5057-6.468 44.5057-6.468C44.5057-6.468 67.0057-31.375 67.0057-48.25ZM40.8463-52.092L44.5053-59.5L48.1573-52.092L56.335-50.905L50.4167-45.142L51.815-37L44.5053-40.842L37.1953-37L38.587-45.142L32.6753-50.905L40.8463-52.092ZM22.0057 1.72033L67.0057 1.72033L67.0057-3.25L22.0057-3.25L22.0057 1.72033Z"/>
  </g>
  <g id="Thin-S" transform="matrix(1 0 0 1 814.665 696)">
   <path d="M64.7912-48.25C64.7912-60.676 54.7181-70.75 42.2912-70.75C29.8643-70.75 19.7912-60.676 19.7912-48.25C19.7912-31.375 42.2912-6.468 42.2912-6.468C42.2912-6.468 64.7912-31.375 64.7912-48.25ZM38.6328-52.092L42.2905-59.5L45.9451-52.092L54.1197-50.905L48.2035-45.142L49.5997-37L42.2905-40.842L34.9805-37L36.3743-45.142L30.4605-50.905L38.6328-52.092ZM19.7912 0.854484L64.7912 0.854484L64.7912-3.25L19.7912-3.25L19.7912 0.854484Z"/>
  </g>
  <g id="Ultralight-S" transform="matrix(1 0 0 1 519.343 696)">
   <path d="M63.657-48.25C63.657-60.676 53.583-70.75 41.157-70.75C28.731-70.75 18.657-60.676 18.657-48.25C18.657-31.375 41.157-6.468 41.157-6.468C41.157-6.468 63.657-31.375 63.657-48.25ZM37.499-52.092L41.156-59.5L44.812-52.092L52.985-50.905L47.07-45.142L48.465-37L41.156-40.842L33.846-37L35.241-45.142L29.326-50.905L37.499-52.092ZM18.657 0.411L63.657 0.411L63.657-3.25L18.657-3.25L18.657 0.411Z"/>
  </g>
 </g>
</svg>
